<svg width="35" height="35" viewBox="0 0 35 35" fill="none" xmlns="http://www.w3.org/2000/svg">
<path d="M10.1641 10.1641C10.5912 9.73697 11.2838 9.73697 11.7109 10.1641L17.5 15.9532L23.2891 10.1641C23.7162 9.73697 24.4088 9.73697 24.8359 10.1641C25.263 10.5912 25.263 11.2838 24.8359 11.7109L19.0468 17.5L24.8359 23.2891C25.263 23.7162 25.263 24.4088 24.8359 24.8359C24.4088 25.263 23.7162 25.263 23.2891 24.8359L17.5 19.0468L11.7109 24.8359C11.2838 25.263 10.5912 25.263 10.1641 24.8359C9.73697 24.4088 9.73697 23.7162 10.1641 23.2891L15.9532 17.5L10.1641 11.7109C9.73697 11.2838 9.73697 10.5912 10.1641 10.1641Z" fill="#131E29"/>
</svg>
