<svg width="20" height="20" viewBox="0 0 20 20" fill="none" xmlns="http://www.w3.org/2000/svg">
<path d="M9.55808 12.3154C9.6753 12.4325 9.83426 12.4984 10 12.4984C10.1658 12.4984 10.3247 12.4325 10.4419 12.3154L13.7232 9.0341C13.7812 8.97607 13.8273 8.90717 13.8587 8.83134C13.8901 8.75551 13.9063 8.67424 13.9063 8.59216C13.9063 8.51008 13.8901 8.42881 13.8587 8.35297C13.8273 8.27714 13.7813 8.20824 13.7232 8.1502C13.6652 8.09216 13.5963 8.04612 13.5205 8.01471C13.4446 7.98329 13.3634 7.96712 13.2813 7.96712C13.1992 7.96711 13.1179 7.98328 13.0421 8.01468C12.9663 8.04609 12.8974 8.09213 12.8393 8.15016L10.625 10.3645V3.12109C10.625 2.95533 10.5592 2.79636 10.442 2.67915C10.3247 2.56194 10.1658 2.49609 10 2.49609C9.83425 2.49609 9.67528 2.56194 9.55807 2.67915C9.44086 2.79636 9.37501 2.95533 9.37501 3.12109V10.3645L7.1607 8.15016C7.10266 8.09213 7.03375 8.04609 6.95792 8.01468C6.88209 7.98328 6.80082 7.96711 6.71874 7.96712C6.55297 7.96713 6.394 8.03298 6.27679 8.1502C6.15959 8.26742 6.09374 8.4264 6.09375 8.59216C6.09376 8.75792 6.15961 8.9169 6.27683 9.0341L9.55808 12.3154Z" fill="black" fill-opacity="0.56"/>
<path d="M17.5 10C17.3342 10 17.1753 10.0659 17.0581 10.1831C16.9409 10.3003 16.875 10.4592 16.875 10.625V16.25H3.125V10.625C3.125 10.4592 3.05915 10.3003 2.94194 10.1831C2.82473 10.0658 2.66576 10 2.5 10C2.33424 10 2.17527 10.0658 2.05806 10.1831C1.94085 10.3003 1.875 10.4592 1.875 10.625V16.25C1.87538 16.5814 2.0072 16.8991 2.24154 17.1335C2.47587 17.3678 2.7936 17.4996 3.125 17.5H16.875C17.2064 17.4996 17.5241 17.3678 17.7585 17.1335C17.9928 16.8991 18.1246 16.5814 18.125 16.25V10.625C18.125 10.4592 18.0591 10.3003 17.9419 10.1831C17.8247 10.0659 17.6658 10 17.5 10Z" fill="black" fill-opacity="0.56"/>
</svg>
