<svg width="20" height="20" viewBox="0 0 20 20" fill="none" xmlns="http://www.w3.org/2000/svg">
<path d="M7.5 16.8778H3.75C3.58424 16.8778 3.42527 16.812 3.30806 16.6948C3.19085 16.5776 3.125 16.4186 3.125 16.2528V12.7617C3.125 12.6796 3.14117 12.5984 3.17258 12.5225C3.20398 12.4467 3.25002 12.3778 3.30806 12.3198L12.6831 2.94478C12.8003 2.82757 12.9592 2.76172 13.125 2.76172C13.2908 2.76172 13.4497 2.82757 13.5669 2.94478L17.0581 6.43589C17.1753 6.5531 17.2411 6.71208 17.2411 6.87784C17.2411 7.0436 17.1753 7.20257 17.0581 7.31978L7.5 16.8778Z" stroke="black" stroke-opacity="0.56" stroke-width="1.5" stroke-linecap="round" stroke-linejoin="round"/>
<path d="M10.625 5.00391L15 9.37891" stroke="black" stroke-opacity="0.56" stroke-width="1.5" stroke-linecap="round" stroke-linejoin="round"/>
</svg>
