<svg width="17" height="17" viewBox="0 0 17 17" fill="none" xmlns="http://www.w3.org/2000/svg">
<path d="M1.1641 1.1641C1.59124 0.736966 2.28376 0.736966 2.7109 1.1641L8.5 6.9532L14.2891 1.1641C14.7162 0.736966 15.4088 0.736966 15.8359 1.1641C16.263 1.59124 16.263 2.28376 15.8359 2.7109L10.0468 8.5L15.8359 14.2891C16.263 14.7162 16.263 15.4088 15.8359 15.8359C15.4088 16.263 14.7162 16.263 14.2891 15.8359L8.5 10.0468L2.7109 15.8359C2.28376 16.263 1.59124 16.263 1.1641 15.8359C0.736966 15.4088 0.736966 14.7162 1.1641 14.2891L6.9532 8.5L1.1641 2.7109C0.736966 2.28376 0.736966 1.59124 1.1641 1.1641Z" fill="#131E29"/>
</svg>
