<svg width="20" height="21" viewBox="0 0 20 21" fill="none" xmlns="http://www.w3.org/2000/svg">
<path fill-rule="evenodd" clip-rule="evenodd" d="M10 0.5C7.28625 0.5 6.945 0.5125 5.87875 0.56C4.8125 0.61 4.08625 0.7775 3.45 1.025C2.78262 1.27602 2.17811 1.66978 1.67875 2.17875C1.1701 2.67837 0.776384 3.2828 0.525 3.95C0.2775 4.585 0.10875 5.3125 0.06 6.375C0.0125 7.44375 0 7.78375 0 10.5013C0 13.2163 0.0125 13.5563 0.06 14.6225C0.11 15.6875 0.2775 16.4137 0.525 17.05C0.78125 17.7075 1.1225 18.265 1.67875 18.8212C2.23375 19.3775 2.79125 19.72 3.44875 19.975C4.08625 20.2225 4.81125 20.3912 5.87625 20.44C6.94375 20.4875 7.28375 20.5 10 20.5C12.7163 20.5 13.055 20.4875 14.1225 20.44C15.1863 20.39 15.915 20.2225 16.5513 19.975C17.2182 19.7239 17.8223 19.3301 18.3212 18.8212C18.8775 18.265 19.2188 17.7075 19.475 17.05C19.7213 16.4137 19.89 15.6875 19.94 14.6225C19.9875 13.5563 20 13.2163 20 10.5C20 7.78375 19.9875 7.44375 19.94 6.37625C19.89 5.3125 19.7213 4.585 19.475 3.95C19.2237 3.28278 18.8299 2.67834 18.3212 2.17875C17.822 1.66959 17.2175 1.27581 16.55 1.025C15.9125 0.7775 15.185 0.60875 14.1213 0.56C13.0538 0.5125 12.715 0.5 9.9975 0.5H10ZM14.8795 4.05381C15.0251 3.9935 15.1812 3.96246 15.3388 3.96246C15.657 3.96246 15.9622 4.08889 16.1873 4.31394C16.4123 4.53898 16.5388 4.8442 16.5388 5.16246C16.5388 5.48072 16.4123 5.78595 16.1873 6.01099C15.9622 6.23604 15.657 6.36246 15.3388 6.36246C15.1812 6.36246 15.0251 6.33142 14.8795 6.27112C14.7339 6.21081 14.6017 6.12242 14.4902 6.01099C14.3788 5.89956 14.2904 5.76727 14.2301 5.62168C14.1698 5.47609 14.1388 5.32005 14.1388 5.16246C14.1388 5.00488 14.1698 4.84883 14.2301 4.70324C14.2904 4.55765 14.3788 4.42537 14.4902 4.31394C14.6017 4.2025 14.7339 4.11411 14.8795 4.05381ZM8.01123 5.73264C8.64362 5.47932 9.3201 5.35434 10.0013 5.36496C11.3494 5.386 12.6353 5.93632 13.5812 6.89715C14.5272 7.85798 15.0574 9.15225 15.0574 10.5006C15.0574 11.8489 14.5272 13.1432 13.5812 14.104C12.6353 15.0649 11.3494 15.6152 10.0013 15.6362C9.3201 15.6468 8.64362 15.5219 8.01123 15.2685C7.37883 15.0152 6.80315 14.6386 6.31769 14.1607C5.83224 13.6827 5.44671 13.113 5.18356 12.4846C4.9204 11.8563 4.78488 11.1818 4.78488 10.5006C4.78488 9.81934 4.9204 9.14491 5.18356 8.51654C5.44671 7.88817 5.83224 7.31843 6.31769 6.84049C6.80315 6.36255 7.37883 5.98596 8.01123 5.73264ZM12.3586 8.14265C11.7334 7.51745 10.8854 7.16621 10.0013 7.16621C9.11709 7.16621 8.26914 7.51745 7.64394 8.14265C7.01874 8.76785 6.66751 9.6158 6.66751 10.5C6.66751 11.3841 7.01874 12.2321 7.64394 12.8573C8.26914 13.4825 9.11709 13.8337 10.0013 13.8337C10.8854 13.8337 11.7334 13.4825 12.3586 12.8573C12.9838 12.2321 13.335 11.3841 13.335 10.5C13.335 9.6158 12.9838 8.76785 12.3586 8.14265Z" fill="#131E29"/>
</svg>
