<svg width="35" height="35" viewBox="0 0 35 35" fill="none" xmlns="http://www.w3.org/2000/svg">
<path fill-rule="evenodd" clip-rule="evenodd" d="M9.84375 25.1562C9.84375 24.5522 10.3334 24.0625 10.9375 24.0625H32.8125C33.4166 24.0625 33.9062 24.5522 33.9062 25.1562C33.9062 25.7603 33.4166 26.25 32.8125 26.25H10.9375C10.3334 26.25 9.84375 25.7603 9.84375 25.1562Z" fill="#131E29" fill-opacity="0.87"/>
<path fill-rule="evenodd" clip-rule="evenodd" d="M5.46875 16.4062C5.46875 15.8022 5.95844 15.3125 6.5625 15.3125H28.4375C29.0416 15.3125 29.5312 15.8022 29.5312 16.4062C29.5312 17.0103 29.0416 17.5 28.4375 17.5H6.5625C5.95844 17.5 5.46875 17.0103 5.46875 16.4062Z" fill="#131E29" fill-opacity="0.87"/>
<path fill-rule="evenodd" clip-rule="evenodd" d="M1.09375 7.65625C1.09375 7.05219 1.58344 6.5625 2.1875 6.5625H24.0625C24.6666 6.5625 25.1562 7.05219 25.1562 7.65625C25.1562 8.26031 24.6666 8.75 24.0625 8.75H2.1875C1.58344 8.75 1.09375 8.26031 1.09375 7.65625Z" fill="#131E29" fill-opacity="0.87"/>
</svg>
