<svg width="20" height="20" viewBox="0 0 20 20" fill="none" xmlns="http://www.w3.org/2000/svg">
<path d="M5 12.5039C6.38071 12.5039 7.5 11.3846 7.5 10.0039C7.5 8.62319 6.38071 7.50391 5 7.50391C3.61929 7.50391 2.5 8.62319 2.5 10.0039C2.5 11.3846 3.61929 12.5039 5 12.5039Z" stroke="black" stroke-opacity="0.56" stroke-width="1.5" stroke-linecap="round" stroke-linejoin="round"/>
<path d="M13.75 18.1289C15.1307 18.1289 16.25 17.0096 16.25 15.6289C16.25 14.2482 15.1307 13.1289 13.75 13.1289C12.3693 13.1289 11.25 14.2482 11.25 15.6289C11.25 17.0096 12.3693 18.1289 13.75 18.1289Z" stroke="black" stroke-opacity="0.56" stroke-width="1.5" stroke-linecap="round" stroke-linejoin="round"/>
<path d="M13.75 6.87891C15.1307 6.87891 16.25 5.75962 16.25 4.37891C16.25 2.99819 15.1307 1.87891 13.75 1.87891C12.3693 1.87891 11.25 2.99819 11.25 4.37891C11.25 5.75962 12.3693 6.87891 13.75 6.87891Z" stroke="black" stroke-opacity="0.56" stroke-width="1.5" stroke-linecap="round" stroke-linejoin="round"/>
<path d="M11.6462 5.73047L7.10156 8.65201" stroke="black" stroke-opacity="0.56" stroke-width="1.5" stroke-linecap="round" stroke-linejoin="round"/>
<path d="M7.10156 11.3555L11.6462 14.277" stroke="black" stroke-opacity="0.56" stroke-width="1.5" stroke-linecap="round" stroke-linejoin="round"/>
</svg>
