<svg width="20" height="20" viewBox="0 0 20 20" fill="none" xmlns="http://www.w3.org/2000/svg">
<path d="M4.375 15.625C4.375 15.9702 4.09518 16.25 3.75 16.25C3.40482 16.25 3.125 15.9702 3.125 15.625L3.125 4.63389L1.69194 6.06694C1.44786 6.31102 1.05214 6.31102 0.808059 6.06694C0.56398 5.82286 0.56398 5.42714 0.808059 5.18306L3.30702 2.68409L3.31629 2.67498C3.37427 2.61905 3.4404 2.57654 3.51076 2.54742C3.58445 2.51687 3.66526 2.5 3.75 2.5C3.83474 2.5 3.91555 2.51687 3.98924 2.54742C4.06295 2.57792 4.13202 2.62314 4.19194 2.68306L6.69194 5.18306C6.93602 5.42714 6.93602 5.82286 6.69194 6.06694C6.44786 6.31102 6.05214 6.31102 5.80806 6.06694L4.375 4.63388L4.375 15.625Z" fill="#707070"/>
<path d="M8.75 4.375C8.75 4.02982 9.02982 3.75 9.375 3.75H18.125C18.4702 3.75 18.75 4.02982 18.75 4.375C18.75 4.72018 18.4702 5 18.125 5H9.375C9.02982 5 8.75 4.72018 8.75 4.375Z" fill="#707070"/>
<path d="M9.375 7.5C9.02982 7.5 8.75 7.77982 8.75 8.125C8.75 8.47018 9.02982 8.75 9.375 8.75H15.625C15.9702 8.75 16.25 8.47018 16.25 8.125C16.25 7.77982 15.9702 7.5 15.625 7.5H9.375Z" fill="#707070"/>
<path d="M9.375 11.25C9.02982 11.25 8.75 11.5298 8.75 11.875C8.75 12.2202 9.02982 12.5 9.375 12.5H13.125C13.4702 12.5 13.75 12.2202 13.75 11.875C13.75 11.5298 13.4702 11.25 13.125 11.25H9.375Z" fill="#707070"/>
<path d="M9.375 15C9.02982 15 8.75 15.2798 8.75 15.625C8.75 15.9702 9.02982 16.25 9.375 16.25H10.625C10.9702 16.25 11.25 15.9702 11.25 15.625C11.25 15.2798 10.9702 15 10.625 15H9.375Z" fill="#707070"/>
</svg>
