<svg width="40" height="43" viewBox="0 0 40 43" fill="none" xmlns="http://www.w3.org/2000/svg">
<path d="M39.6875 22.3556C39.6875 33.2287 30.8731 42.0431 20 42.0431C9.12689 42.0431 0.3125 33.2287 0.3125 22.3556C0.3125 13.264 6.47507 5.61182 14.8509 3.34828C14.7852 3.11852 14.75 2.87587 14.75 2.625C14.75 1.17525 15.9252 0 17.375 0H22.625C24.0747 0 25.25 1.17525 25.25 2.625C25.25 2.87586 25.2148 3.11851 25.1491 3.34826C33.5249 5.61178 39.6875 13.264 39.6875 22.3556ZM30.209 12.1036L17.2159 19.5282L9.79128 32.5213L22.7844 25.0967L30.209 12.1036Z" fill="#131E29" fill-opacity="0.75"/>
</svg>
