<svg width="24" height="25" viewBox="0 0 24 25" fill="none" xmlns="http://www.w3.org/2000/svg">
<path fill-rule="evenodd" clip-rule="evenodd" d="M2.82716 1.26661C3.94033 0.153442 5.77724 0.267804 6.74375 1.51045L9.4343 4.96974C9.92805 5.60456 10.1025 6.43113 9.90747 7.21134L9.08657 10.4949C8.99991 10.8416 9.10148 11.2083 9.35415 11.461L13.039 15.1459C13.2917 15.3985 13.6584 15.5001 14.0051 15.4134L17.2887 14.5925C18.0689 14.3975 18.8954 14.572 19.5303 15.0657L22.9895 17.7563C24.2322 18.7228 24.3466 20.5597 23.2334 21.6728L21.6825 23.2237C20.5729 24.3333 18.9133 24.8205 17.3666 24.2767C13.5263 22.9266 9.92158 20.7161 6.85273 17.6473C3.78389 14.5784 1.57342 10.9737 0.223257 7.13337C-0.320524 5.58669 0.166695 3.92708 1.27627 2.8175L2.82716 1.26661Z" fill="#131E29"/>
</svg>
