<svg width="20" height="20" viewBox="0 0 20 20" fill="none" xmlns="http://www.w3.org/2000/svg">
<path d="M16.875 4.37891L3.125 4.37891" stroke="black" stroke-opacity="0.56" stroke-width="1.5" stroke-linecap="round" stroke-linejoin="round"/>
<path d="M8.125 8.12891V13.1289" stroke="black" stroke-opacity="0.56" stroke-width="1.5" stroke-linecap="round" stroke-linejoin="round"/>
<path d="M11.875 8.12891V13.1289" stroke="black" stroke-opacity="0.56" stroke-width="1.5" stroke-linecap="round" stroke-linejoin="round"/>
<path d="M15.625 4.37891V16.2539C15.625 16.4197 15.5592 16.5786 15.4419 16.6958C15.3247 16.8131 15.1658 16.8789 15 16.8789H5C4.83424 16.8789 4.67527 16.8131 4.55806 16.6958C4.44085 16.5786 4.375 16.4197 4.375 16.2539V4.37891" stroke="black" stroke-opacity="0.56" stroke-width="1.5" stroke-linecap="round" stroke-linejoin="round"/>
<path d="M13.125 4.37891V3.12891C13.125 2.79739 12.9933 2.47944 12.7589 2.24502C12.5245 2.0106 12.2065 1.87891 11.875 1.87891H8.125C7.79348 1.87891 7.47554 2.0106 7.24112 2.24502C7.0067 2.47944 6.875 2.79739 6.875 3.12891V4.37891" stroke="black" stroke-opacity="0.56" stroke-width="1.5" stroke-linecap="round" stroke-linejoin="round"/>
</svg>
