<svg width="20" height="20" viewBox="0 0 20 20" fill="none" xmlns="http://www.w3.org/2000/svg">
<path d="M7.1607 6.84428L9.37501 4.62993V11.8733C9.37501 12.0391 9.44086 12.1981 9.55807 12.3153C9.67528 12.4325 9.83425 12.4983 10 12.4983C10.1658 12.4983 10.3247 12.4325 10.442 12.3153C10.5592 12.1981 10.625 12.0391 10.625 11.8733V4.62993L12.8393 6.84428C12.8974 6.90231 12.9663 6.94835 13.0421 6.97975C13.1179 7.01116 13.1992 7.02732 13.2813 7.02732C13.3634 7.02732 13.4446 7.01115 13.5205 6.97973C13.5963 6.94832 13.6652 6.90228 13.7232 6.84424C13.7813 6.7862 13.8273 6.71729 13.8587 6.64146C13.8901 6.56563 13.9063 6.48436 13.9063 6.40228C13.9063 6.3202 13.8901 6.23893 13.8587 6.1631C13.8273 6.08727 13.7812 6.01837 13.7232 5.96033L10.4419 2.67908C10.3247 2.56191 10.1658 2.49609 10 2.49609C9.83427 2.49609 9.67531 2.56191 9.55808 2.67908L6.27683 5.96033C6.21879 6.01837 6.17275 6.08727 6.14134 6.1631C6.10992 6.23893 6.09375 6.3202 6.09375 6.40228C6.09375 6.48436 6.10991 6.56563 6.14132 6.64146C6.17272 6.71729 6.21876 6.7862 6.27679 6.84424C6.33483 6.90228 6.40373 6.94832 6.47956 6.97973C6.55539 7.01115 6.63666 7.02732 6.71874 7.02732C6.80082 7.02732 6.88209 7.01116 6.95792 6.97975C7.03375 6.94835 7.10266 6.90231 7.1607 6.84428Z" fill="black" fill-opacity="0.56"/>
<path d="M17.5 10C17.3342 10 17.1753 10.0659 17.0581 10.1831C16.9409 10.3003 16.875 10.4592 16.875 10.625V16.25H3.125V10.625C3.125 10.4592 3.05915 10.3003 2.94194 10.1831C2.82473 10.0658 2.66576 10 2.5 10C2.33424 10 2.17527 10.0658 2.05806 10.1831C1.94085 10.3003 1.875 10.4592 1.875 10.625V16.25C1.87538 16.5814 2.0072 16.8991 2.24154 17.1335C2.47587 17.3678 2.7936 17.4996 3.125 17.5H16.875C17.2064 17.4996 17.5241 17.3678 17.7585 17.1335C17.9928 16.8991 18.1246 16.5814 18.125 16.25V10.625C18.125 10.4592 18.0591 10.3003 17.9419 10.1831C17.8247 10.0659 17.6658 10 17.5 10Z" fill="black" fill-opacity="0.56"/>
</svg>
