<svg width="20" height="15" viewBox="0 0 20 15" fill="none" xmlns="http://www.w3.org/2000/svg">
<path d="M10.0652 0C10.0723 1.50954e-05 10.0799 3.27068e-05 10.0882 5.32534e-05L10.1767 0.000328745C11.2039 0.0041026 16.4103 0.0418413 17.814 0.419227C18.6746 0.650034 19.3522 1.33023 19.5822 2.19365C19.7088 2.66801 19.797 3.29851 19.8585 3.94696L19.8705 4.07684C19.8802 4.18521 19.8891 4.29383 19.8974 4.40204L19.907 4.53167C19.9892 5.6743 19.9987 6.74356 19.9999 6.9775L20 7.00906C20 7.01164 20 7.01586 20 7.01586V7.03358C20 7.03358 20 7.0378 20 7.04039L19.9999 7.07195C19.9987 7.31473 19.9884 8.45709 19.8974 9.64747L19.8871 9.77748L19.8762 9.90763C19.8143 10.6233 19.7215 11.334 19.5822 11.8558C19.3522 12.7192 18.6746 13.3996 17.814 13.6302C16.3635 14.0203 10.8526 14.0476 10.0882 14.0496L10.0293 14.0497C10.0245 14.0497 10.0202 14.0497 10.0166 14.0497L9.99256 14.0497C9.99256 14.0497 9.98704 14.0497 9.98339 14.0497L9.9118 14.0496C9.52549 14.0486 7.92693 14.0411 6.25284 13.9836L6.03881 13.976C6.00309 13.9747 5.96737 13.9734 5.93164 13.972L5.71736 13.9635L5.50357 13.9545C4.11669 13.8936 2.79437 13.7938 2.18608 13.6302C1.32556 13.3996 0.647935 12.7192 0.417945 11.8558C0.278612 11.334 0.185723 10.6233 0.123798 9.90763L0.112876 9.77748L0.102616 9.64747C0.0148499 8.50038 0.0021096 7.39787 0.000260199 7.10196L3.92022e-05 7.0596C2.36937e-05 7.05579 1.07698e-05 7.05228 0 7.04907V7.00037C1.07698e-05 6.99717 2.36937e-05 6.99366 3.92022e-05 6.98984L0.000260199 6.94748C0.00193513 6.6795 0.012543 5.74996 0.0797262 4.72486L0.0884222 4.59626C0.0899218 4.57476 0.0914468 4.55323 0.0929976 4.53167L0.102616 4.40204C0.110896 4.29383 0.119844 4.18521 0.129513 4.07684L0.141466 3.94696C0.202996 3.29851 0.291279 2.66801 0.417945 2.19365C0.647935 1.33023 1.32556 0.650034 2.18608 0.419227C2.79437 0.255693 4.11669 0.155938 5.50357 0.0950866L5.71736 0.0860285L5.93164 0.0775641C5.96737 0.0762018 6.00309 0.0748633 6.03881 0.0735483L6.25284 0.0659369C7.82007 0.0121367 9.32111 0.00217374 9.8233 0.000328745L9.9118 5.32534e-05C9.92002 3.27068e-05 9.92769 1.50954e-05 9.9348 0H10.0652ZM8.00004 4.01399V10.0354L13.196 7.02489L8.00004 4.01399Z" fill="#131E29"/>
</svg>
